<?xml version="1.0" encoding="iso-8859-1"?>
<!-- Uploaded to: SVG Repo, www.svgrepo.com, Generator: SVG Repo Mixer Tools -->
<!DOCTYPE svg PUBLIC "-//W3C//DTD SVG 1.1//EN" "http://www.w3.org/Graphics/SVG/1.1/DTD/svg11.dtd">
<svg fill="#000000" version="1.1" id="Capa_1" xmlns="http://www.w3.org/2000/svg" xmlns:xlink="http://www.w3.org/1999/xlink" 
	 width="800px" height="800px" viewBox="0 0 31.759 31.759"
	 xml:space="preserve">
<g>
	<g>
		<path d="M16.658,10.067h9.986l4.836-3.979l-4.836-3.979h-9.986V0h-2.887v2.108H2.096v7.959h11.675v19.227h-2.91v2.024h8.627
			v-2.024h-2.83V10.067z M2.999,9.164V3.013h23.322l3.737,3.075l-3.737,3.076H2.999z"/>
		<path d="M7.953,5.975c-0.086-0.07-0.184-0.128-0.294-0.174C7.55,5.755,7.437,5.716,7.322,5.683
			C7.206,5.65,7.094,5.623,6.984,5.599c-0.11-0.023-0.208-0.05-0.295-0.08S6.531,5.455,6.48,5.417
			C6.428,5.378,6.402,5.328,6.402,5.266c0-0.053,0.013-0.097,0.038-0.131C6.465,5.1,6.497,5.072,6.535,5.053
			c0.039-0.021,0.082-0.036,0.129-0.046c0.047-0.008,0.093-0.012,0.138-0.012c0.062,0,0.124,0.006,0.187,0.02
			c0.062,0.013,0.117,0.034,0.167,0.064c0.048,0.03,0.088,0.068,0.118,0.118c0.03,0.049,0.042,0.108,0.04,0.18h0.825
			c0-0.178-0.037-0.332-0.111-0.46c-0.074-0.129-0.17-0.235-0.289-0.318C7.621,4.517,7.486,4.455,7.333,4.415
			C7.18,4.375,7.026,4.354,6.869,4.354c-0.148,0-0.3,0.019-0.454,0.054C6.261,4.443,6.122,4.501,5.998,4.576
			C5.873,4.654,5.772,4.753,5.693,4.877C5.614,5,5.575,5.146,5.575,5.318c0,0.146,0.027,0.27,0.083,0.373
			c0.055,0.101,0.125,0.187,0.213,0.257c0.087,0.07,0.186,0.126,0.298,0.171c0.11,0.044,0.222,0.083,0.335,0.116
			c0.116,0.032,0.227,0.06,0.335,0.086C6.947,6.345,7.044,6.375,7.13,6.407c0.086,0.032,0.155,0.071,0.207,0.116
			c0.052,0.044,0.078,0.102,0.078,0.174c0,0.059-0.015,0.109-0.044,0.15c-0.029,0.041-0.068,0.075-0.116,0.1
			C7.208,6.973,7.154,6.991,7.093,7.003C7.032,7.016,6.971,7.021,6.909,7.021c-0.178,0-0.32-0.036-0.427-0.107
			C6.376,6.843,6.318,6.715,6.309,6.527H5.482c0,0.205,0.037,0.378,0.113,0.52C5.671,7.191,5.772,7.307,5.9,7.399
			c0.127,0.092,0.273,0.159,0.438,0.2C6.503,7.641,6.676,7.662,6.86,7.662c0.175,0,0.345-0.018,0.511-0.054
			c0.166-0.035,0.313-0.094,0.442-0.176c0.129-0.08,0.233-0.19,0.311-0.326C8.202,6.969,8.242,6.8,8.242,6.6
			c0-0.144-0.027-0.266-0.081-0.367C8.109,6.129,8.039,6.044,7.953,5.975z"/>
		<path d="M9.526,5.359c0.06-0.089,0.136-0.16,0.229-0.214c0.093-0.053,0.207-0.079,0.34-0.079c0.175,0,0.319,0.041,0.434,0.123
			c0.114,0.084,0.183,0.205,0.207,0.365h0.827c-0.006-0.189-0.053-0.359-0.14-0.51c-0.087-0.148-0.199-0.274-0.335-0.377
			c-0.136-0.103-0.29-0.18-0.46-0.233c-0.17-0.054-0.341-0.08-0.512-0.08c-0.24,0-0.458,0.043-0.654,0.129
			C9.267,4.568,9.1,4.686,8.962,4.837C8.821,4.986,8.716,5.161,8.641,5.361C8.568,5.561,8.53,5.777,8.53,6.008
			c0,0.231,0.037,0.446,0.111,0.647c0.075,0.199,0.18,0.374,0.318,0.525c0.138,0.149,0.305,0.267,0.5,0.352
			c0.195,0.087,0.414,0.13,0.654,0.13c0.201,0,0.387-0.028,0.56-0.088c0.171-0.057,0.321-0.142,0.448-0.252
			c0.128-0.112,0.23-0.248,0.307-0.409s0.121-0.345,0.133-0.549h-0.827c-0.015,0.184-0.076,0.328-0.184,0.431
			c-0.108,0.104-0.26,0.156-0.456,0.156c-0.133,0-0.247-0.027-0.34-0.08C9.661,6.818,9.585,6.745,9.526,6.656
			C9.467,6.567,9.424,6.467,9.397,6.355c-0.027-0.114-0.04-0.229-0.04-0.348c0-0.119,0.013-0.234,0.04-0.347
			C9.424,5.549,9.466,5.448,9.526,5.359z"/>
		<polygon points="13.908,5.577 12.819,5.577 12.819,4.422 11.993,4.422 11.993,7.594 12.819,7.594 12.819,6.287 13.908,6.287 
			13.908,7.594 14.734,7.594 14.734,4.422 13.908,4.422 		"/>
		<path d="M17.894,4.837c-0.134-0.15-0.297-0.269-0.491-0.354c-0.194-0.086-0.416-0.129-0.665-0.129s-0.47,0.043-0.664,0.129
			c-0.194,0.085-0.358,0.203-0.491,0.354c-0.133,0.149-0.235,0.324-0.305,0.524c-0.069,0.199-0.104,0.416-0.104,0.646
			c0,0.231,0.035,0.446,0.104,0.647c0.07,0.199,0.172,0.374,0.305,0.524c0.133,0.149,0.297,0.267,0.491,0.353
			c0.194,0.087,0.416,0.13,0.664,0.13c0.249,0,0.47-0.043,0.665-0.13c0.193-0.085,0.356-0.202,0.491-0.353
			c0.133-0.15,0.233-0.325,0.305-0.524c0.068-0.201,0.104-0.416,0.104-0.647c0-0.23-0.035-0.447-0.104-0.646
			C18.127,5.161,18.027,4.986,17.894,4.837z M17.437,6.355c-0.027,0.111-0.07,0.212-0.13,0.301
			c-0.059,0.089-0.136,0.161-0.229,0.214c-0.094,0.053-0.207,0.08-0.34,0.08s-0.247-0.027-0.34-0.08
			c-0.094-0.053-0.17-0.125-0.229-0.214c-0.059-0.089-0.102-0.189-0.129-0.301c-0.026-0.114-0.04-0.229-0.04-0.348
			c0-0.119,0.014-0.234,0.04-0.347c0.027-0.112,0.07-0.213,0.129-0.302c0.059-0.089,0.135-0.16,0.229-0.214
			c0.093-0.053,0.207-0.079,0.34-0.079s0.247,0.026,0.34,0.079c0.093,0.054,0.169,0.125,0.229,0.214
			c0.061,0.089,0.104,0.189,0.13,0.302c0.025,0.112,0.04,0.228,0.04,0.347C17.475,6.126,17.462,6.241,17.437,6.355z"/>
		<path d="M21.35,4.837c-0.133-0.15-0.297-0.269-0.49-0.354c-0.194-0.086-0.416-0.129-0.664-0.129c-0.249,0-0.471,0.043-0.665,0.129
			c-0.194,0.085-0.357,0.203-0.491,0.354c-0.134,0.149-0.235,0.324-0.305,0.524C18.666,5.56,18.63,5.777,18.63,6.007
			c0,0.231,0.035,0.446,0.104,0.647c0.069,0.199,0.171,0.374,0.305,0.524c0.133,0.149,0.297,0.267,0.491,0.353
			c0.194,0.087,0.416,0.13,0.665,0.13s0.47-0.043,0.664-0.13c0.193-0.085,0.357-0.202,0.49-0.353
			c0.134-0.15,0.234-0.325,0.306-0.524c0.068-0.201,0.104-0.416,0.104-0.647c0-0.23-0.035-0.447-0.104-0.646
			C21.584,5.161,21.484,4.986,21.35,4.837z M20.892,6.355c-0.025,0.111-0.068,0.212-0.129,0.301
			c-0.059,0.089-0.136,0.161-0.229,0.214c-0.094,0.053-0.207,0.08-0.34,0.08s-0.247-0.027-0.34-0.08
			c-0.094-0.053-0.169-0.125-0.229-0.214c-0.059-0.089-0.102-0.189-0.129-0.301c-0.026-0.114-0.04-0.229-0.04-0.348
			c0-0.119,0.013-0.234,0.04-0.347c0.027-0.112,0.07-0.213,0.129-0.302c0.061-0.089,0.136-0.16,0.229-0.214
			c0.093-0.053,0.207-0.079,0.34-0.079s0.247,0.026,0.34,0.079c0.093,0.054,0.169,0.125,0.229,0.214
			c0.061,0.089,0.104,0.189,0.129,0.302c0.026,0.113,0.04,0.228,0.04,0.347C20.932,6.126,20.919,6.241,20.892,6.355z"/>
		<polygon points="23.036,4.422 22.208,4.422 22.208,7.594 24.514,7.594 24.514,6.883 23.036,6.883 		"/>
		<path d="M1.753,19.047c-0.185-1.673,0.617-2.686,0.925-3.007c0.285,1.731,1.78,3.063,3.593,3.063c1.716,0,3.151-1.196,3.541-2.795
			c0.295,0.521,0.794,1.59,0.672,2.738c3.046-0.025,1.545-3.505-0.588-3.885c-0.016-0.179-0.032-0.357-0.07-0.528
			c-0.125-1.099-1.11-3.335-3.933-3.269c-2.433,0.058-2.965,1.889-3.091,3.004c-0.086,0.275-0.142,0.563-0.159,0.861
			C-0.527,15.779-0.179,18.994,1.753,19.047z M4.56,14.418c0,0,0.312,0.107,0.312,1.124c0.538,0.187,1.473-1.581,1.473-1.581v1.391
			c0.596,0.162,2.467-0.05,2.467-0.05l0.069,0.057C8.883,15.39,8.89,15.421,8.89,15.45c0,1.442-1.175,2.62-2.62,2.62
			c-1.425,0-2.582-1.146-2.613-2.562C4.178,15.317,4.56,14.418,4.56,14.418z"/>
		<polygon points="10.482,24.275 11.942,23.914 8.451,19.195 7.03,19.195 5.494,19.195 4.206,19.195 0.62,23.518 1.258,24.843 
			4.07,21.621 4.232,22.898 1.619,27.393 4.633,27.393 4.633,31.301 4.237,31.301 4.237,31.759 6.041,31.759 6.041,31.301 
			6.041,31.301 6.041,27.393 6.717,27.393 6.717,31.301 6.717,31.759 8.518,31.759 8.518,31.301 8.123,31.301 8.123,27.393 
			10.461,27.393 8.156,22.898 8.281,21.326 		"/>
		<path d="M24.054,11.363c-0.771,0-1.776,0.63-2.322,1.094c-0.681,0.574-0.145,1.081-0.145,2.041c0,1.736,1.402,3.137,3.136,3.137
			c1.732,0,3.137-1.4,3.137-3.137c0-1.081,0.379-2.072-0.455-2.637C26.905,11.527,24.706,11.363,24.054,11.363z M24.795,16.906
			c-1.268,0-2.294-1.045-2.294-2.335c0-0.132,0.019-0.256,0.038-0.381c0.576-0.106,0.968,0.087,0.968,0.087l0.962-0.472
			c0,0-0.488,0.71-0.048,0.472c0.979-0.33,2.074-0.193,2.632-0.084c0.021,0.124,0.039,0.246,0.039,0.378
			C27.091,15.861,26.065,16.906,24.795,16.906z"/>
		<polygon points="22.786,18.148 19.239,23.585 20.322,24.729 22.569,20.754 22.46,26.344 23.084,26.344 23.084,30.254 
			22.689,30.254 22.689,30.713 24.493,30.713 24.493,30.254 24.493,26.344 25.168,26.344 25.168,30.254 25.168,30.713 
			26.969,30.713 26.969,30.254 26.575,30.254 26.575,26.344 27.332,26.344 27.332,21.297 29.306,24.049 30.069,22.826 
			26.931,18.148 		"/>
	</g>
</g>
</svg>